<?xml version="1.0" encoding="UTF-8"?><svg id="_レイヤー_2" xmlns="http://www.w3.org/2000/svg" viewBox="0 0 126.13 58.85"><defs><style>.cls-1{fill:#000333;stroke-width:0px;}</style></defs><g id="_レイヤー_1-2"><path class="cls-1" d="M2.78,35.99c0-2.96,4.29-9.04,8.89-15.24-1.37-.19-2.42-.69-2.42-1.52,0-1.06,1.61-1.7,3.44-1.7.47,0,.9.03,1.31.1,4.7-6.29,9.01-12.13,9.01-14.5,0-1.41-1.01-2.18-2.92-2.18C13.47.96,1,9.8,1,16.06c0,1.01.37,1.71,1.23,1.81.64.08.14,1.03-.5.93-1.08-.18-1.73-1.27-1.73-2.74C0,9.31,13.14,0,20.08,0c2.43,0,3.92,1.17,3.92,3.13,0,2.61-4.33,8.55-8.94,14.73.78.23,1.46.59,2.08,1.04,4.42-1.82,9.6-5.84,13.61-8.95,4.18-3.23,5.45-4.12,6.32-4.12.72,0,.71.96,0,.96-.47,0-1.77.87-5.71,3.92-3.84,2.98-8.9,6.9-13.4,8.88,1.97,1.84,3.3,4.7,4.99,7.61,2.48,4.25,5.28,8.16,10.45,8.16,3.62,0,6.7-1.94,7.55-2.42l.49.84c-.81.46-4.13,2.53-8.04,2.53-5.71,0-8.82-4.35-11.32-8.63-1.84-3.18-3.15-6.02-5.12-7.69-1.4.53-2.73.84-3.93.84h-.19c-4.71,6.32-9.06,12.41-9.06,15.15,0,.33.06.57.19.77.34.53-.49,1.06-.82.53-.24-.37-.37-.8-.37-1.3ZM12.33,19.85c.39-.52.78-1.03,1.01-1.34-.21-.01-.43-.02-.66-.02-1.26,0-2.44.43-2.44.74,0,.22.96.53,2.09.62ZM13.56,19.86c.77-.06,1.59-.24,2.44-.53-.48-.28-.99-.49-1.57-.63l-.13.18c-.24.33-.49.66-.74.99Z"/><path class="cls-1" d="M36.19,30.91c-1.27,0-2-.63-2-1.75,0-2.24,2.28-4.97,4.17-4.97.82-.01,1.34.41,1.34,1.17,0,1.33-1.77,2.1-3.89,1.83-.38.64-.62,1.34-.62,1.97,0,.57.27.8,1,.8,2.97,0,8.78-3.07,11-4.72l.57.77c-2.27,1.68-8.33,4.91-11.56,4.91ZM36.47,26.28c1.25.04,2.23-.34,2.23-.87,0-.2-.14-.27-.34-.27-.59,0-1.29.47-1.89,1.13Z"/><path class="cls-1" d="M43.1,31.29c.24-.41.48-.8.69-1.17.94-1.63,1.78-3.08,3.99-5.65l.76.62c-1.66,1.94-2.51,3.21-3.44,4.71,2.85-2.3,4.77-3.32,5.93-3.32.66,0,1.23.56,1.23,1.21,0,.7-.46,1.56-.51,2.27-.04.4.19.62.68.62,2.08,0,8.33-3.8,10.49-5.33l.61.75c-2.15,1.53-8.73,5.53-11.1,5.53-1.07,0-1.78-.7-1.68-1.67.1-.83.51-1.66.51-2.18,0-.13-.12-.26-.33-.26-1.02,0-3.53,1.54-6.95,4.34-.46.38-1.19.08-.87-.49Z"/><path class="cls-1" d="M61.75,27.25c0-1.51,1.86-2.9,3.84-2.9.7,0,1.31.11,1.82.36l-.49.83c-.37-.16-.8-.23-1.33-.23-1.44,0-2.84.99-2.84,1.94,0,.2.1.29.37.29,1.83,0,6.55-2.28,7.35-3.41l.93.33c-.31.8-.87,2.33-1.67,4.31,4.82-1.92,8.54-3.23,9.78-3.62l.31.91c-1.3.41-5.38,1.86-10.61,3.97-2.05,4.89-5.41,11.83-10.12,17.68-5.94,7.38-12.6,11.14-19.71,11.14-3.81,0-6.68-2.2-6.68-5.2,0-4.69,6.44-10.31,18.88-16.73,5.69-2.93,11.79-5.59,16.86-7.64.56-1.32,1-2.49,1.35-3.42-1.98,1.32-5.11,2.63-6.7,2.63-.8,0-1.37-.5-1.37-1.24ZM39.39,57.9c6.79,0,13.15-3.63,18.93-10.79,4.37-5.41,7.55-11.8,9.61-16.56-4.85,1.98-10.53,4.48-15.86,7.22-12.03,6.2-18.35,11.67-18.35,15.88,0,2.44,2.41,4.24,5.68,4.24Z"/><path class="cls-1" d="M86.22,28.31c-1.53.51-3,.79-4.28.79h-.52c-.88.62-1.9,1.03-2.84,1.03-1.03,0-1.77-.64-1.77-1.58,0-.44.19-.96.52-1.47-.04-.2-.07-.43-.07-.69,0-2.06,1.69-3.65,3.81-3.65,1.71,0,2.81.93,2.81,2.41,0,1-.54,2.08-1.37,2.97,1.02-.07,2.16-.31,3.39-.72.71-.23.92.71.31.91ZM78.58,29.18c.36,0,.72-.08,1.09-.22-.77-.12-1.38-.36-1.79-.77-.04.13-.07.26-.07.37,0,.39.28.62.77.62ZM78.51,27.15c.43.57,1.38.88,2.6.97,1.01-.81,1.78-1.97,1.78-2.95,0-.92-.64-1.46-1.81-1.46-1.43,0-2.58.97-2.78,2.29.11-.1.23-.2.37-.3.72-.56,1.54-.88,2.25-.88.33,0,.67.07.94.2.42.21.02,1.07-.42.87-.18-.08-.31-.11-.52-.11-.5,0-1.07.23-1.65.68-.28.21-.53.46-.76.7Z"/><path class="cls-1" d="M91.49,30.64c.09-.4.48-.71.88-.71s.68.31.58.71c-.1.38-.5.71-.88.71-.41,0-.67-.33-.58-.71Z"/><path class="cls-1" d="M103.67,35.97c-.14-.27-.24-.61-.3-1.03-2.91.42-5.57,1.07-7.46,1.84-.68.28-1.01-.63-.36-.89,1.99-.78,4.77-1.41,7.8-1.84.02-.57.1-1.23.24-1.98,1.01-5.22,4.29-11.86,7.38-18.12,1.61-3.27,3.17-6.43,4.34-9.25-3.95.48-8.13,1.3-10.81,2.41-.72.3-.98-.64-.36-.89,2.87-1.13,7.4-2,11.56-2.5.17-.42.33-.84.48-1.24.22-.61,1.16-.32.93.31-.09.27-.19.53-.3.81,2.07-.22,4-.33,5.54-.33.87,0,1.67.03,2.27.12,1.1.17,1.68.78,1.46,1.64-.12.47-.97.46-.96,0,.01-.42-.11-.61-.63-.69-.56-.08-1.29-.12-2.13-.12-1.63,0-3.71.12-5.92.36-1.2,2.98-2.88,6.34-4.58,9.8-3.09,6.25-6.34,12.76-7.3,17.87-.12.63-.19,1.19-.22,1.68,3.69-.46,7.68-.59,11.02-.26.57.06.46,1.02-.11.96-3.32-.39-7.26-.28-10.9.18.02.3.09.53.18.7.3.53-.58.98-.87.47Z"/></g></svg>